<svg width="244" height="47" viewBox="0 0 244 47" fill="none" xmlns="http://www.w3.org/2000/svg">
<path d="M214.9 26.88V20.096H225.332C227.465 20.096 229.108 19.5626 230.26 18.496C231.455 17.3866 232.052 15.872 232.052 13.952C232.052 12.2026 231.455 10.752 230.26 9.59998C229.108 8.40531 227.465 7.80798 225.332 7.80798H214.9V0.703979H226.1C229.001 0.703979 231.54 1.27998 233.716 2.43198C235.935 3.54131 237.641 5.07731 238.836 7.03998C240.073 9.00264 240.692 11.264 240.692 13.824C240.692 16.4693 240.073 18.7733 238.836 20.736C237.641 22.656 235.935 24.1706 233.716 25.28C231.497 26.3466 228.916 26.88 225.972 26.88H214.9ZM208.5 45.696V0.703979H217.204V45.696H208.5ZM233.076 45.696L218.228 26.24L226.228 23.744L243.636 45.696H233.076Z" fill="#1A1714"/>
<path d="M178.369 46.4C175.083 46.4 172.011 45.8027 169.153 44.608C166.337 43.4133 163.862 41.7707 161.729 39.68C159.638 37.5467 157.995 35.072 156.801 32.256C155.606 29.3973 155.009 26.3467 155.009 23.104C155.009 19.8613 155.585 16.8533 156.737 14.08C157.931 11.264 159.574 8.81067 161.665 6.72C163.798 4.58667 166.273 2.944 169.089 1.792C171.905 0.597333 174.955 0 178.241 0C181.569 0 184.641 0.597333 187.457 1.792C190.273 2.944 192.726 4.58667 194.817 6.72C196.95 8.81067 198.614 11.264 199.809 14.08C201.003 16.896 201.601 19.9253 201.601 23.168C201.601 26.4107 201.003 29.44 199.809 32.256C198.614 35.072 196.95 37.5467 194.817 39.68C192.726 41.7707 190.273 43.4133 187.457 44.608C184.683 45.8027 181.654 46.4 178.369 46.4ZM178.241 38.272C181.142 38.272 183.659 37.632 185.793 36.352C187.926 35.072 189.59 33.3013 190.785 31.04C192.022 28.7787 192.641 26.1333 192.641 23.104C192.641 20.8853 192.299 18.8587 191.617 17.024C190.934 15.1893 189.953 13.6107 188.673 12.288C187.393 10.9227 185.878 9.87733 184.129 9.152C182.379 8.42667 180.417 8.064 178.241 8.064C175.425 8.064 172.929 8.704 170.753 9.984C168.619 11.2213 166.934 12.9707 165.697 15.232C164.502 17.4933 163.905 20.1173 163.905 23.104C163.905 25.3653 164.246 27.4347 164.929 29.312C165.654 31.1893 166.635 32.7893 167.873 34.112C169.153 35.4347 170.667 36.4587 172.417 37.184C174.209 37.9093 176.15 38.272 178.241 38.272Z" fill="#1A1714"/>
<path d="M143.621 45.696L130.693 25.664H129.413L111.877 0.703979H122.181L135.045 19.584H136.325L153.797 45.696H143.621ZM111.109 45.696L127.941 21.632L134.341 25.92L120.965 45.696H111.109ZM136.773 24.32L130.373 20.032L143.173 0.703979H153.029L136.773 24.32Z" fill="#1A1714"/>
<path d="M88.7283 46.336C85.187 46.336 82.0297 45.568 79.2563 44.032C76.5257 42.4533 74.371 40.2986 72.7923 37.568C71.2137 34.8373 70.4243 31.744 70.4243 28.288V0.703979H79.1283V28.544C79.1283 30.5493 79.5337 32.2773 80.3443 33.728C81.1977 35.1786 82.3497 36.3093 83.8003 37.12C85.2937 37.888 86.9363 38.272 88.7283 38.272C90.563 38.272 92.1843 37.888 93.5923 37.12C95.0003 36.3093 96.1097 35.1786 96.9203 33.728C97.7737 32.2773 98.2003 30.5706 98.2003 28.608V0.703979H106.968V28.352C106.968 31.808 106.179 34.9013 104.6 37.632C103.022 40.32 100.867 42.4533 98.1363 44.032C95.4483 45.568 92.3123 46.336 88.7283 46.336Z" fill="#1A1714"/>
<path d="M37 45.696V0.703979H45.704V45.696H37ZM43.4 45.696V37.952H66.312V45.696H43.4Z" fill="#1A1714"/>
<path d="M0 45.696V0.703979H8.704V45.696H0ZM6.4 27.264V19.52H29.056V27.264H6.4ZM6.4 8.38398V0.703979H30.144V8.38398H6.4Z" fill="#1A1714"/>
</svg>
