<svg width="254" height="47" viewBox="0 0 254 47" fill="none" xmlns="http://www.w3.org/2000/svg">
<path d="M224.9 26.88V20.096H235.332C237.465 20.096 239.108 19.5626 240.26 18.496C241.455 17.3866 242.052 15.872 242.052 13.952C242.052 12.2026 241.455 10.752 240.26 9.59998C239.108 8.40531 237.465 7.80798 235.332 7.80798H224.9V0.703979H236.1C239.001 0.703979 241.54 1.27998 243.716 2.43198C245.935 3.54131 247.641 5.07731 248.836 7.03998C250.073 9.00264 250.692 11.264 250.692 13.824C250.692 16.4693 250.073 18.7733 248.836 20.736C247.641 22.656 245.935 24.1706 243.716 25.28C241.497 26.3466 238.916 26.88 235.972 26.88H224.9ZM218.5 45.696V0.703979H227.204V45.696H218.5ZM243.076 45.696L228.228 26.24L236.228 23.744L253.636 45.696H243.076Z" fill="currentColor"/>
<path d="M186.369 46.4C183.083 46.4 180.011 45.8027 177.153 44.608C174.337 43.4133 171.862 41.7707 169.729 39.68C167.638 37.5467 165.995 35.072 164.801 32.256C163.606 29.3973 163.009 26.3467 163.009 23.104C163.009 19.8613 163.585 16.8533 164.737 14.08C165.931 11.264 167.574 8.81067 169.665 6.72C171.798 4.58667 174.273 2.944 177.089 1.792C179.905 0.597333 182.955 0 186.241 0C189.569 0 192.641 0.597333 195.457 1.792C198.273 2.944 200.726 4.58667 202.817 6.72C204.95 8.81067 206.614 11.264 207.809 14.08C209.003 16.896 209.601 19.9253 209.601 23.168C209.601 26.4107 209.003 29.44 207.809 32.256C206.614 35.072 204.95 37.5467 202.817 39.68C200.726 41.7707 198.273 43.4133 195.457 44.608C192.683 45.8027 189.654 46.4 186.369 46.4ZM186.241 38.272C189.142 38.272 191.659 37.632 193.793 36.352C195.926 35.072 197.59 33.3013 198.785 31.04C200.022 28.7787 200.641 26.1333 200.641 23.104C200.641 20.8853 200.299 18.8587 199.617 17.024C198.934 15.1893 197.953 13.6107 196.673 12.288C195.393 10.9227 193.878 9.87733 192.129 9.152C190.379 8.42667 188.417 8.064 186.241 8.064C183.425 8.064 180.929 8.704 178.753 9.984C176.619 11.2213 174.934 12.9707 173.697 15.232C172.502 17.4933 171.905 20.1173 171.905 23.104C171.905 25.3653 172.246 27.4347 172.929 29.312C173.654 31.1893 174.635 32.7893 175.873 34.112C177.153 35.4347 178.667 36.4587 180.417 37.184C182.209 37.9093 184.15 38.272 186.241 38.272Z" fill="currentColor"/>
<path d="M149.621 45.696L136.693 25.664H135.413L117.877 0.703979H128.181L141.045 19.584H142.325L159.797 45.696H149.621ZM117.109 45.696L133.941 21.632L140.341 25.92L126.965 45.696H117.109ZM142.773 24.32L136.373 20.032L149.173 0.703979H159.029L142.773 24.32Z" fill="currentColor"/>
<path d="M92.7283 46.336C89.187 46.336 86.0297 45.568 83.2563 44.032C80.5257 42.4533 78.371 40.2986 76.7923 37.568C75.2137 34.8373 74.4243 31.744 74.4243 28.288V0.703979H83.1283V28.544C83.1283 30.5493 83.5337 32.2773 84.3443 33.728C85.1977 35.1786 86.3497 36.3093 87.8003 37.12C89.2937 37.888 90.9363 38.272 92.7283 38.272C94.563 38.272 96.1843 37.888 97.5923 37.12C99.0003 36.3093 100.11 35.1786 100.92 33.728C101.774 32.2773 102.2 30.5706 102.2 28.608V0.703979H110.968V28.352C110.968 31.808 110.179 34.9013 108.6 37.632C107.022 40.32 104.867 42.4533 102.136 44.032C99.4483 45.568 96.3123 46.336 92.7283 46.336Z" fill="currentColor"/>
<path d="M39 45.696V0.703979H47.704V45.696H39ZM45.4 45.696V37.952H68.312V45.696H45.4Z" fill="currentColor"/>
<path d="M0 45.696V0.703979H8.704V45.696H0ZM6.4 27.264V19.52H29.056V27.264H6.4ZM6.4 8.38398V0.703979H30.144V8.38398H6.4Z" fill="currentColor"/>
</svg>
