<svg width="245" height="47" viewBox="0 0 245 47" fill="none" xmlns="http://www.w3.org/2000/svg">
<g clip-path="url(#clip0_2516_86)">
<path d="M215.789 27.184V20.4H226.221C228.354 20.4 229.997 19.8667 231.149 18.8C232.344 17.6907 232.941 16.176 232.941 14.256C232.941 12.5067 232.344 11.056 231.149 9.904C229.997 8.70933 228.354 8.112 226.221 8.112H215.789V1.008H226.989C229.891 1.008 232.429 1.58399 234.605 2.73599C236.824 3.84533 238.53 5.38133 239.725 7.34399C240.962 9.30666 241.581 11.568 241.581 14.128C241.581 16.7733 240.962 19.0773 239.725 21.04C238.53 22.96 236.824 24.4747 234.605 25.584C232.386 26.6507 229.805 27.184 226.861 27.184H215.789ZM209.389 46V1.008H218.093V46H209.389ZM233.965 46L219.117 26.544L227.117 24.048L244.525 46H233.965Z" fill="currentColor"/>
<path d="M179.258 46.704C175.973 46.704 172.901 46.1067 170.042 44.912C167.226 43.7174 164.751 42.0747 162.618 39.984C160.527 37.8507 158.885 35.376 157.69 32.56C156.495 29.7013 155.898 26.6507 155.898 23.408C155.898 20.1653 156.474 17.1574 157.626 14.384C158.821 11.568 160.463 9.11469 162.554 7.02402C164.687 4.89068 167.162 3.24802 169.978 2.09602C172.794 0.901349 175.845 0.304016 179.13 0.304016C182.458 0.304016 185.53 0.901349 188.346 2.09602C191.162 3.24802 193.615 4.89068 195.706 7.02402C197.839 9.11469 199.503 11.568 200.698 14.384C201.893 17.2 202.49 20.2294 202.49 23.472C202.49 26.7147 201.893 29.744 200.698 32.56C199.503 35.376 197.839 37.8507 195.706 39.984C193.615 42.0747 191.162 43.7174 188.346 44.912C185.573 46.1067 182.543 46.704 179.258 46.704ZM179.13 38.576C182.031 38.576 184.549 37.936 186.682 36.656C188.815 35.376 190.479 33.6054 191.674 31.344C192.911 29.0827 193.53 26.4374 193.53 23.408C193.53 21.1893 193.189 19.1627 192.506 17.328C191.823 15.4934 190.842 13.9147 189.562 12.592C188.282 11.2267 186.767 10.1814 185.018 9.45602C183.269 8.73068 181.306 8.36802 179.13 8.36802C176.314 8.36802 173.818 9.00802 171.642 10.288C169.509 11.5253 167.823 13.2747 166.586 15.536C165.391 17.7974 164.794 20.4213 164.794 23.408C164.794 25.6693 165.135 27.7387 165.818 29.616C166.543 31.4933 167.525 33.0934 168.762 34.416C170.042 35.7387 171.557 36.7627 173.306 37.488C175.098 38.2134 177.039 38.576 179.13 38.576Z" fill="currentColor"/>
<path d="M144.511 46L131.583 25.968H130.303L112.767 1.008H123.071L135.935 19.888H137.215L154.687 46H144.511ZM111.999 46L128.831 21.936L135.231 26.224L121.855 46H111.999ZM137.663 24.624L131.263 20.336L144.063 1.008H153.919L137.663 24.624Z" fill="currentColor"/>
<path d="M89.6175 46.64C86.0761 46.64 82.9188 45.872 80.1455 44.336C77.4148 42.7573 75.2601 40.6027 73.6815 37.872C72.1028 35.1413 71.3135 32.048 71.3135 28.592V1.008H80.0175V28.848C80.0175 30.8533 80.4228 32.5813 81.2335 34.032C82.0868 35.4827 83.2388 36.6133 84.6895 37.424C86.1828 38.192 87.8255 38.576 89.6175 38.576C91.4521 38.576 93.0735 38.192 94.4815 37.424C95.8895 36.6133 96.9988 35.4827 97.8095 34.032C98.6628 32.5813 99.0895 30.8747 99.0895 28.912V1.008H107.857V28.656C107.857 32.112 107.068 35.2053 105.489 37.936C103.911 40.624 101.756 42.7573 99.0255 44.336C96.3375 45.872 93.2015 46.64 89.6175 46.64Z" fill="currentColor"/>
<path d="M37.8892 46V1.008H46.5932V46H37.8892ZM44.2892 46V38.256H67.2012V46H44.2892Z" fill="currentColor"/>
<path d="M0.88916 46V1.008H9.59316V46H0.88916ZM7.28916 27.568V19.824H29.9452V27.568H7.28916ZM7.28916 8.688V1.008H31.0332V8.688H7.28916Z" fill="currentColor"/>
</g>
<defs>
<clipPath id="clip0_2516_86">
<rect width="245" height="47" fill="white"/>
</clipPath>
</defs>
</svg>
