<svg width="14" height="10" viewBox="0 0 14 10" fill="none" xmlns="http://www.w3.org/2000/svg">
<path fill-rule="evenodd" clip-rule="evenodd" d="M8.537 0.807991C8.5684 0.731759 8.61816 0.664474 8.68186 0.612128C8.74555 0.559781 8.8212 0.523997 8.90207 0.507962C8.98294 0.491926 9.06652 0.496137 9.14537 0.520219C9.22422 0.544301 9.29589 0.587507 9.354 0.645991L13.354 4.64599C13.4006 4.69244 13.4375 4.74761 13.4627 4.80836C13.4879 4.8691 13.5009 4.93422 13.5009 4.99999C13.5009 5.06576 13.4879 5.13088 13.4627 5.19162C13.4375 5.25237 13.4006 5.30754 13.354 5.35399L9.354 9.35399C9.26011 9.44788 9.13278 9.50062 9 9.50062C8.86722 9.50062 8.73989 9.44788 8.646 9.35399C8.55211 9.2601 8.49937 9.13277 8.49937 8.99999C8.49937 8.86721 8.55211 8.73988 8.646 8.64599L11.793 5.49999H1C0.867392 5.49999 0.740215 5.44731 0.646447 5.35354C0.552678 5.25978 0.5 5.1326 0.5 4.99999C0.5 4.86738 0.552678 4.74021 0.646447 4.64644C0.740215 4.55267 0.867392 4.49999 1 4.49999H11.793L8.646 1.35399C8.57575 1.28404 8.52788 1.19479 8.50847 1.09757C8.48906 1.00035 8.49899 0.899553 8.537 0.807991Z" fill="currentColor"/>
</svg>
